<?xml version="1.0" encoding="UTF-8" standalone="no"?>
<!DOCTYPE svg PUBLIC "-//W3C//DTD SVG 1.1//EN" "http://www.w3.org/Graphics/SVG/1.1/DTD/svg11.dtd">
<svg width="100%" height="100%" viewBox="0 0 104 152" version="1.1" xmlns="http://www.w3.org/2000/svg" xmlns:xlink="http://www.w3.org/1999/xlink" xml:space="preserve" xmlns:serif="http://www.serif.com/" style="fill-rule:evenodd;clip-rule:evenodd;stroke-linecap:round;stroke-linejoin:round;">
    <g transform="matrix(1,0,0,1,-2049.119182,-984.775557)">
        <g transform="matrix(1,0,0,1,-4177.49,-3067.139)">
            <g id="STROKE_fff1d804-6532-4a1a-920b-875607ed2c3d" transform="matrix(0.991235,-0.132114,0.132114,0.991235,-489.935433,864.883229)">
                <path d="M6295.08,4135.407C6295.073,4135.526 6294.855,4136.703 6294.426,4138.937C6293.996,4141.17 6293.655,4142.884 6293.403,4144.079C6293.152,4145.273 6292.971,4146.171 6292.86,4146.773C6292.749,4147.376 6292.668,4147.833 6292.615,4148.144C6292.562,4148.455 6292.403,4149.321 6292.137,4150.742C6291.87,4152.163 6291.642,4153.485 6291.453,4154.707C6291.263,4155.929 6291.065,4157.363 6290.859,4159.009C6290.652,4160.655 6290.494,4161.907 6290.384,4162.766C6290.273,4163.625 6290.177,4164.407 6290.094,4165.112C6290.011,4165.818 6289.859,4167.973 6289.64,4171.577C6289.421,4175.181 6289.238,4178.017 6289.093,4180.084C6288.948,4182.151 6288.807,4183.785 6288.672,4184.986C6288.537,4186.187 6288.389,4187.454 6288.229,4188.786" style="fill:none;fill-rule:nonzero;stroke:rgb(24,23,18);stroke-width:9.4px;"/>
            </g>
        </g>
        <g transform="matrix(1,0,0,1,-4177.49,-3067.139)">
            <g id="STROKE_ee8a547b-fb1e-416b-bb54-752cd8f1e044" transform="matrix(0.991235,-0.132114,0.132114,0.991235,-489.935433,864.883229)">
                <path d="M6231.415,4123.728C6231.403,4123.924 6231.2,4125.113 6230.806,4127.296C6230.412,4129.478 6230.123,4131.15 6229.938,4132.312C6229.755,4133.474 6229.617,4134.509 6229.526,4135.417C6229.435,4136.325 6229.346,4137.346 6229.257,4138.481C6229.168,4139.616 6229.089,4140.516 6229.019,4141.181C6228.948,4141.847 6228.881,4142.57 6228.817,4143.349C6228.754,4144.128 6228.684,4145.288 6228.607,4146.827C6228.53,4148.366 6228.469,4149.702 6228.423,4150.834C6228.378,4151.966 6228.339,4152.88 6228.308,4153.577C6228.276,4154.273 6228.239,4155.149 6228.196,4156.205C6228.154,4157.261 6228.058,4158.914 6227.907,4161.163C6227.757,4163.412 6227.631,4165.242 6227.53,4166.651C6227.429,4168.061 6227.016,4170.893 6226.29,4175.147" style="fill:none;fill-rule:nonzero;stroke:rgb(24,23,18);stroke-width:9.4px;"/>
            </g>
        </g>
        <g transform="matrix(1,0,0,1,-4177.49,-3067.139)">
            <g id="STROKE_f4a007ec-d989-4474-9fb8-4af6f34123de" transform="matrix(0.991235,-0.132114,0.132114,0.991235,-489.935433,864.883229)">
                <path d="M6287.386,4191.845C6287.139,4192.047 6286.651,4192.422 6285.922,4192.971C6285.193,4193.519 6284.551,4193.958 6283.996,4194.288C6283.441,4194.617 6282.965,4194.859 6282.568,4195.013C6282.171,4195.168 6281.628,4195.323 6280.939,4195.479C6280.25,4195.636 6279.347,4195.817 6278.23,4196.021C6277.113,4196.225 6276.007,4196.401 6274.912,4196.55C6273.817,4196.698 6272.733,4196.819 6271.659,4196.912C6270.586,4197.005 6269.638,4197.076 6268.815,4197.125C6267.993,4197.175 6267.155,4197.21 6266.302,4197.23C6265.449,4197.25 6264.587,4197.26 6263.716,4197.261C6262.846,4197.261 6261.769,4197.213 6260.484,4197.116C6259.201,4197.02 6258.114,4196.921 6257.223,4196.82C6256.332,4196.719 6255.419,4196.595 6254.484,4196.448C6253.55,4196.301 6252.593,4196.123 6251.612,4195.916C6250.631,4195.709 6249.632,4195.472 6248.614,4195.205C6247.597,4194.938 6246.604,4194.651 6245.637,4194.344C6244.67,4194.037 6243.725,4193.707 6242.804,4193.354C6241.883,4193 6241.073,4192.675 6240.375,4192.378C6239.676,4192.082 6238.971,4191.755 6238.26,4191.397C6237.549,4191.04 6236.871,4190.691 6236.227,4190.351C6235.582,4190.01 6234.801,4189.513 6233.884,4188.862C6232.966,4188.211 6232.165,4187.527 6231.482,4186.808C6230.799,4186.089 6230.295,4185.524 6229.972,4185.113C6229.649,4184.702 6229.272,4184.172 6228.843,4183.524C6228.413,4182.876 6227.915,4181.982 6227.349,4180.843C6226.782,4179.704 6226.188,4178.175 6225.567,4176.256" style="fill:none;fill-rule:nonzero;stroke:rgb(24,23,18);stroke-width:9.4px;"/>
            </g>
        </g>
        <g transform="matrix(1,0,0,1,-4177.49,-3067.139)">
            <g id="STROKE_41bc807d-d0df-4ab0-ad06-73aabf949ba2" transform="matrix(0.991235,-0.132114,0.132114,0.991235,-489.935433,864.883229)">
                <path d="M6291.869,4136.216C6291.762,4136.303 6291.376,4136.59 6290.713,4137.075C6290.05,4137.56 6289.368,4137.976 6288.668,4138.321C6287.969,4138.667 6287.193,4138.941 6286.342,4139.144C6285.491,4139.347 6284.656,4139.503 6283.838,4139.613C6283.021,4139.723 6282.061,4139.801 6280.96,4139.848C6279.859,4139.895 6278.757,4139.899 6277.653,4139.861C6276.55,4139.823 6275.437,4139.734 6274.314,4139.594C6273.191,4139.455 6272.137,4139.308 6271.152,4139.155C6270.167,4139.002 6269.043,4138.805 6267.78,4138.565C6266.517,4138.326 6265.26,4138.081 6264.01,4137.831C6262.759,4137.582 6261.349,4137.266 6259.779,4136.885C6258.209,4136.503 6256.776,4136.14 6255.479,4135.797C6254.182,4135.453 6252.912,4135.1 6251.669,4134.737C6250.426,4134.374 6249.454,4134.079 6248.751,4133.852C6248.049,4133.624 6247.14,4133.327 6246.025,4132.96C6244.91,4132.593 6243.82,4132.216 6242.754,4131.828C6241.688,4131.439 6240.785,4131.063 6240.046,4130.7C6239.307,4130.336 6238.664,4129.968 6238.116,4129.595C6237.568,4129.222 6237.076,4128.883 6236.64,4128.58C6236.204,4128.277 6235.648,4127.788 6234.971,4127.114C6234.294,4126.44 6233.745,4125.833 6233.322,4125.292C6232.9,4124.751 6232.564,4124.225 6232.314,4123.714C6232.064,4123.202 6231.888,4122.723 6231.786,4122.276C6231.684,4121.829 6231.652,4121.407 6231.69,4121.008C6231.729,4120.609 6231.842,4120.228 6232.029,4119.864C6232.216,4119.501 6232.492,4119.122 6232.856,4118.728C6233.221,4118.333 6233.753,4117.928 6234.451,4117.512C6235.149,4117.095 6236.062,4116.724 6237.191,4116.399C6238.32,4116.074 6239.324,4115.818 6240.201,4115.629C6241.079,4115.44 6242.043,4115.244 6243.093,4115.041C6244.143,4114.837 6245.039,4114.674 6245.78,4114.553C6246.521,4114.431 6247.285,4114.32 6248.072,4114.221C6248.859,4114.122 6249.728,4114.038 6250.681,4113.971C6251.632,4113.903 6252.673,4113.86 6253.802,4113.841C6254.931,4113.822 6255.928,4113.82 6256.795,4113.833C6257.662,4113.847 6258.535,4113.874 6259.416,4113.914C6260.297,4113.954 6261.101,4114.01 6261.829,4114.081C6262.556,4114.152 6263.202,4114.222 6263.766,4114.29C6264.329,4114.358 6264.759,4114.409 6265.057,4114.444C6265.354,4114.479 6266.215,4114.623 6267.638,4114.877C6269.06,4115.132 6270.362,4115.42 6271.545,4115.741C6272.728,4116.062 6273.628,4116.328 6274.246,4116.538C6274.863,4116.748 6275.452,4116.962 6276.011,4117.181C6276.57,4117.4 6277.593,4117.822 6279.08,4118.447C6280.567,4119.073 6281.895,4119.713 6283.063,4120.367C6284.232,4121.022 6285.12,4121.538 6285.725,4121.917C6286.33,4122.296 6287.015,4122.777 6287.782,4123.359C6288.549,4123.941 6289.369,4124.621 6290.24,4125.398C6291.111,4126.175 6291.823,4126.85 6292.374,4127.423C6292.925,4127.995 6293.328,4128.446 6293.583,4128.777C6293.838,4129.107 6294.109,4129.519 6294.394,4130.014C6294.679,4130.508 6294.892,4130.907 6295.032,4131.21C6295.173,4131.513 6295.321,4131.913 6295.477,4132.409C6295.632,4132.905 6295.496,4133.878 6295.069,4135.329" style="fill:none;fill-rule:nonzero;stroke:rgb(24,23,18);stroke-width:9.4px;"/>
            </g>
        </g>
        <g transform="matrix(1,0,0,1,-4177.49,-3067.139)">
            <g id="STROKE_fa266a94-d7ae-4014-a22d-6c37cfa3bcdb" transform="matrix(0.991235,-0.132114,0.132114,0.991235,-489.935433,864.883229)">
                <path d="M6291.047,4149.958C6291.178,4149.911 6291.584,4149.636 6292.265,4149.132C6292.946,4148.628 6293.495,4148.156 6293.912,4147.716C6294.33,4147.277 6294.848,4146.867 6295.466,4146.487C6296.085,4146.107 6296.57,4145.844 6296.922,4145.699C6297.274,4145.553 6298.152,4145.341 6299.555,4145.062C6300.958,4144.783 6302.048,4144.611 6302.825,4144.547C6303.602,4144.484 6304.45,4144.475 6305.367,4144.522C6306.284,4144.57 6307.173,4144.719 6308.032,4144.968C6308.892,4145.217 6309.759,4145.594 6310.634,4146.099C6311.509,4146.603 6312.386,4147.264 6313.265,4148.081C6314.144,4148.898 6314.807,4149.585 6315.256,4150.144C6315.705,4150.703 6316.048,4151.163 6316.283,4151.524C6316.519,4151.886 6316.771,4152.333 6317.04,4152.866C6317.309,4153.399 6317.52,4153.841 6317.674,4154.193C6317.828,4154.545 6318.063,4155.08 6318.379,4155.799C6318.695,4156.517 6318.963,4157.197 6319.183,4157.839C6319.403,4158.48 6319.596,4159.298 6319.762,4160.291C6319.927,4161.284 6320.032,4162.302 6320.076,4163.345C6320.12,4164.388 6320.128,4165.249 6320.1,4165.93C6320.072,4166.61 6319.974,4167.438 6319.806,4168.414C6319.637,4169.389 6319.401,4170.394 6319.096,4171.427C6318.792,4172.46 6318.435,4173.444 6318.025,4174.377C6317.616,4175.31 6317.267,4176.028 6316.979,4176.531C6316.69,4177.035 6316.432,4177.434 6316.207,4177.728C6315.982,4178.021 6315.614,4178.455 6315.104,4179.029C6314.593,4179.603 6314.129,4180.101 6313.712,4180.523C6313.294,4180.946 6312.86,4181.325 6312.41,4181.661C6311.959,4181.998 6311.454,4182.322 6310.893,4182.635C6310.332,4182.948 6309.754,4183.254 6309.159,4183.555C6308.564,4183.855 6307.836,4184.113 6306.973,4184.33C6306.11,4184.546 6305.335,4184.701 6304.648,4184.796C6303.962,4184.891 6303.201,4184.955 6302.364,4184.988C6301.527,4185.021 6300.748,4184.961 6300.025,4184.809C6299.302,4184.656 6298.703,4184.498 6298.228,4184.334C6297.753,4184.171 6297.054,4183.825 6296.132,4183.297C6295.21,4182.769 6294.082,4181.859 6292.749,4180.567" style="fill:none;fill-rule:nonzero;stroke:rgb(24,23,18);stroke-width:9.4px;"/>
            </g>
        </g>
        <g transform="matrix(1,0,0,1,-4177.49,-3067.139)">
            <g id="STROKE_e6233f2c-6f4b-4f52-b402-020cd329c901" transform="matrix(0.991235,-0.132114,0.132114,0.991235,-489.935433,864.883229)">
                <path d="M6266.058,4093.452C6266.016,4093.392 6265.832,4093.113 6265.505,4092.615C6265.179,4092.116 6264.928,4091.655 6264.751,4091.232C6264.574,4090.809 6264.468,4090.381 6264.433,4089.947C6264.397,4089.513 6264.401,4089.146 6264.445,4088.845C6264.489,4088.544 6264.579,4088.213 6264.716,4087.852C6264.852,4087.491 6265.123,4087.011 6265.528,4086.414C6265.933,4085.816 6266.341,4085.308 6266.751,4084.889C6267.162,4084.471 6267.477,4084.164 6267.697,4083.968C6267.918,4083.772 6268.258,4083.487 6268.718,4083.112C6269.177,4082.738 6269.594,4082.339 6269.968,4081.915C6270.341,4081.49 6270.692,4080.926 6271.02,4080.221C6271.348,4079.516 6271.589,4078.927 6271.744,4078.456C6271.899,4077.985 6272.057,4077.447 6272.22,4076.842C6272.383,4076.238 6272.489,4075.43 6272.539,4074.417C6272.588,4073.404 6272.602,4072.64 6272.579,4072.125C6272.556,4071.609 6272.524,4071.06 6272.482,4070.478C6272.439,4069.897 6272.383,4069.304 6272.313,4068.701C6272.244,4068.098 6272.14,4067.537 6272.003,4067.018C6271.866,4066.498 6271.733,4066.045 6271.606,4065.659C6271.479,4065.272 6271.283,4064.754 6271.016,4064.103C6270.749,4063.452 6270.064,4062.346 6268.959,4060.785" style="fill:none;fill-rule:nonzero;stroke:rgb(24,23,18);stroke-width:7.2px;"/>
            </g>
        </g>
        <g transform="matrix(1,0,0,1,-4177.49,-3067.139)">
            <g id="STROKE_40f62087-9b30-4598-8991-40e98a716f24" transform="matrix(0.991235,-0.132114,0.132114,0.991235,-489.935433,864.883229)">
                <path d="M6249.496,4097.921C6249.469,4097.848 6249.367,4097.623 6249.188,4097.244C6249.009,4096.865 6248.754,4096.333 6248.423,4095.646C6248.092,4094.959 6247.8,4094.345 6247.547,4093.804C6247.295,4093.262 6247.039,4092.694 6246.78,4092.1C6246.521,4091.506 6246.295,4090.963 6246.104,4090.47C6245.913,4089.977 6245.693,4089.306 6245.444,4088.457C6245.195,4087.607 6245.003,4086.759 6244.867,4085.912C6244.732,4085.065 6244.667,4084.276 6244.672,4083.545C6244.677,4082.815 6244.75,4082.157 6244.889,4081.572C6245.028,4080.987 6245.204,4080.471 6245.415,4080.023C6245.627,4079.576 6245.846,4079.193 6246.073,4078.875C6246.3,4078.557 6246.739,4078.188 6247.389,4077.768C6248.038,4077.347 6248.581,4077.019 6249.018,4076.782C6249.453,4076.546 6249.872,4076.206 6250.275,4075.763C6250.677,4075.32 6251.042,4074.792 6251.371,4074.179C6251.699,4073.567 6251.997,4072.912 6252.265,4072.214C6252.533,4071.516 6252.739,4070.701 6252.883,4069.77C6253.027,4068.838 6253.118,4068.05 6253.156,4067.406C6253.194,4066.762 6253.212,4065.87 6253.211,4064.729C6253.21,4063.589 6253.15,4062.422 6253.032,4061.229C6252.915,4060.036 6252.75,4058.913 6252.539,4057.859C6252.327,4056.806 6252.096,4055.809 6251.845,4054.869C6251.594,4053.93 6251.294,4052.968 6250.945,4051.985" style="fill:none;fill-rule:nonzero;stroke:rgb(24,23,18);stroke-width:7.2px;"/>
            </g>
        </g>
        <g transform="matrix(1,0,0,1,-4177.49,-3067.139)">
            <g id="STROKE_f3a64141-c8b5-4a42-aa85-f4e89cf636c1" transform="matrix(0.991235,-0.132114,0.132114,0.991235,-489.935433,864.883229)">
                <path d="M6289.401,4103.332C6289.374,4103.259 6289.272,4103.034 6289.093,4102.656C6288.914,4102.277 6288.659,4101.745 6288.328,4101.059C6287.997,4100.372 6287.705,4099.757 6287.453,4099.215C6287.2,4098.673 6286.944,4098.105 6286.685,4097.511C6286.425,4096.917 6286.2,4096.374 6286.009,4095.881C6285.818,4095.389 6285.599,4094.718 6285.35,4093.868C6285.101,4093.019 6284.908,4092.17 6284.772,4091.323C6284.636,4090.476 6284.571,4089.687 6284.577,4088.957C6284.582,4088.227 6284.655,4087.569 6284.794,4086.984C6284.933,4086.399 6285.108,4085.882 6285.32,4085.435C6285.532,4084.987 6285.752,4084.604 6285.979,4084.286C6286.206,4083.968 6286.644,4083.599 6287.294,4083.179C6287.944,4082.758 6288.487,4082.43 6288.923,4082.194C6289.359,4081.957 6289.778,4081.617 6290.18,4081.174C6290.583,4080.731 6290.948,4080.204 6291.276,4079.591C6291.604,4078.978 6291.902,4078.323 6292.17,4077.625C6292.438,4076.927 6292.644,4076.112 6292.788,4075.181C6292.932,4074.249 6293.023,4073.461 6293.062,4072.817C6293.1,4072.174 6293.118,4071.282 6293.116,4070.141C6293.115,4069 6293.055,4067.834 6292.938,4066.641C6292.82,4065.448 6292.655,4064.324 6292.444,4063.271C6292.232,4062.217 6292.001,4061.22 6291.75,4060.281C6291.5,4059.341 6291.2,4058.379 6290.851,4057.396" style="fill:none;fill-rule:nonzero;stroke:rgb(24,23,18);stroke-width:7.2px;"/>
            </g>
        </g>
        <g transform="matrix(1,0,0,1,-4177.49,-3067.139)">
            <g id="STROKE_bb5fe72b-295a-4aa2-87f0-4ee27ae77754" transform="matrix(0.71492,-0.095286,0.095286,0.71492,1396.74017,1774.792206)">
                <path d="M6288.988,4133.412C6288.929,4133.327 6288.644,4132.975 6288.134,4132.355C6287.624,4131.735 6287.147,4131.211 6286.702,4130.782C6286.257,4130.354 6285.647,4129.835 6284.871,4129.224C6284.096,4128.613 6283.463,4128.098 6282.972,4127.677C6282.481,4127.256 6282.101,4126.92 6281.833,4126.667C6281.566,4126.414 6281.014,4125.945 6280.177,4125.259C6279.341,4124.573 6278.682,4124.031 6278.201,4123.634C6277.72,4123.236 6277.26,4122.84 6276.823,4122.447C6276.386,4122.054 6276.007,4121.681 6275.686,4121.326C6275.696,4121.312 6275.974,4121.472 6276.519,4121.807C6277.064,4122.142 6277.832,4122.696 6278.825,4123.468C6279.817,4124.241 6280.572,4124.831 6281.091,4125.238C6281.61,4125.646 6282.023,4125.997 6282.332,4126.292C6282.641,4126.587 6283.091,4127.033 6283.683,4127.63C6284.275,4128.227 6284.681,4128.633 6284.901,4128.847C6285.121,4129.061 6285.394,4129.341 6285.721,4129.688C6286.048,4130.034 6286.295,4130.31 6286.464,4130.517C6286.633,4130.723 6286.893,4131.065 6287.244,4131.544C6287.595,4132.023 6287.886,4132.451 6288.115,4132.828C6288.344,4133.205 6288.465,4133.526 6288.477,4133.79C6288.488,4134.055 6288.394,4134.208 6288.194,4134.251C6287.994,4134.294 6287.555,4134.166 6286.878,4133.868C6286.201,4133.569 6285.632,4133.295 6285.171,4133.045C6284.71,4132.794 6284.123,4132.476 6283.412,4132.091" style="fill:none;fill-rule:nonzero;stroke:rgb(24,23,18);stroke-width:3px;"/>
            </g>
        </g>
        <g transform="matrix(1,0,0,1,-4177.49,-3067.139)">
            <g id="STROKE_e2cd4854-1e4a-486e-bb21-62d4833e54de" transform="matrix(0.873401,-0.116409,0.116409,0.873401,315.020136,1253.658033)">
                <path d="M6276.653,4127.736C6276.568,4127.7 6275.967,4127.293 6274.851,4126.514C6273.734,4125.735 6272.687,4125.025 6271.708,4124.382C6270.73,4123.739 6269.938,4123.242 6269.331,4122.89C6268.724,4122.538 6268.275,4122.275 6267.984,4122.102C6267.693,4121.928 6267.09,4121.565 6266.177,4121.013C6265.264,4120.46 6264.459,4120.006 6263.764,4119.65C6263.069,4119.295 6262.482,4119.028 6262.003,4118.85C6261.524,4118.671 6261.137,4118.559 6260.841,4118.512C6260.544,4118.465 6260.323,4118.454 6260.176,4118.478C6260.029,4118.501 6259.916,4118.545 6259.838,4118.608C6259.759,4118.672 6259.742,4118.847 6259.785,4119.134C6259.828,4119.421 6260.082,4119.834 6260.547,4120.373C6261.012,4120.912 6261.472,4121.375 6261.927,4121.761C6262.382,4122.148 6262.843,4122.562 6263.312,4123.003C6263.781,4123.445 6264.348,4123.972 6265.011,4124.584C6265.674,4125.195 6266.201,4125.671 6266.592,4126.011C6266.983,4126.351 6267.337,4126.676 6267.654,4126.987C6267.972,4127.298 6268.565,4127.931 6269.432,4128.887C6270.299,4129.843 6270.814,4130.445 6270.978,4130.693C6271.141,4130.941 6271.252,4131.137 6271.311,4131.28C6271.37,4131.423 6271.405,4131.546 6271.417,4131.648C6271.429,4131.751 6271.415,4131.864 6271.376,4131.988C6271.337,4132.112 6271.214,4132.216 6271.008,4132.299C6270.802,4132.382 6270.324,4132.31 6269.574,4132.083C6268.824,4131.856 6267.744,4131.339 6266.335,4130.533" style="fill:none;fill-rule:nonzero;stroke:rgb(24,23,18);stroke-width:3px;"/>
            </g>
        </g>
        <g transform="matrix(1,0,0,1,-4177.49,-3067.139)">
            <g id="STROKE_746ab428-9ace-4f3e-b443-7c49520af2b9" transform="matrix(0.708858,-0.259599,0.343886,0.939011,404.302619,1876.736934)">
                <path d="M6262.427,4128.383C6262.362,4128.352 6261.765,4127.958 6260.636,4127.202C6259.506,4126.445 6258.49,4125.8 6257.589,4125.265C6256.688,4124.729 6255.922,4124.297 6255.293,4123.97C6254.663,4123.642 6253.92,4123.246 6253.063,4122.782C6252.206,4122.318 6251.543,4121.974 6251.072,4121.749C6250.601,4121.524 6250.252,4121.366 6250.024,4121.273C6249.797,4121.181 6249.475,4121.063 6249.06,4120.919C6248.644,4120.775 6248.286,4120.684 6247.987,4120.646C6247.688,4120.609 6247.481,4120.602 6247.365,4120.627C6247.249,4120.651 6247.167,4120.698 6247.119,4120.767C6247.071,4120.836 6247.088,4120.984 6247.171,4121.209C6247.254,4121.435 6247.481,4121.726 6247.853,4122.082C6248.225,4122.438 6248.547,4122.729 6248.818,4122.955C6249.09,4123.181 6249.648,4123.707 6250.493,4124.534C6251.338,4125.36 6252.035,4126.025 6252.586,4126.529C6253.137,4127.034 6253.587,4127.436 6253.937,4127.736C6254.286,4128.037 6254.554,4128.284 6254.739,4128.476C6254.924,4128.668 6255.089,4128.87 6255.233,4129.081C6255.378,4129.292 6255.48,4129.464 6255.541,4129.599C6255.601,4129.732 6255.627,4129.865 6255.618,4129.998C6255.609,4130.131 6255.493,4130.209 6255.272,4130.232C6255.051,4130.256 6254.685,4130.179 6254.173,4130C6253.662,4129.822 6252.572,4129.227 6250.905,4128.214C6249.238,4127.201 6247.96,4126.435 6247.071,4125.915C6246.181,4125.395 6245.409,4124.908 6244.754,4124.454C6244.099,4124.001 6243.606,4123.646 6243.274,4123.391C6242.942,4123.136 6242.431,4122.8 6241.74,4122.383C6241.05,4121.966 6240.431,4121.623 6239.884,4121.356C6239.336,4121.089 6238.705,4120.826 6237.99,4120.569" style="fill:none;fill-rule:nonzero;stroke:rgb(24,23,18);stroke-width:3px;"/>
            </g>
        </g>
    </g>
</svg>
